<svg width="474" height="104" viewBox="0 0 474 104" fill="none" xmlns="http://www.w3.org/2000/svg">
<g clip-path="url(#clip0_274_425)">
<path d="M70.0415 25.208C73.7407 25.208 76.9622 27.9172 79.2385 32.1769C81.5213 36.4489 82.9028 42.3581 82.9028 48.9613V72.8953C82.9028 74.0013 82.4638 75.0624 81.6824 75.8446C80.901 76.6267 79.8413 77.0659 78.7361 77.0662H48.3055C47.2003 77.0659 46.1404 76.6267 45.359 75.8446C44.5775 75.0624 44.1388 74.0013 44.1388 72.8953V66.3241C41.8838 70.2517 38.7913 72.7143 35.2642 72.7143C31.565 72.7143 28.3434 70.0054 26.0672 65.7454C23.7844 61.4736 22.4028 55.5642 22.4028 48.9613C22.4028 42.3581 23.7844 36.4489 26.0672 32.1769C28.3434 27.9172 31.565 25.208 35.2642 25.208H70.0415ZM42.5063 29.1979C45.6615 33.0941 47.7596 39.5112 48.0788 46.9665H52.6528C53.1816 46.9665 53.6886 47.1768 54.0622 47.5509C54.4361 47.925 54.6459 48.4323 54.6459 48.9613C54.6459 49.4903 54.4361 49.9975 54.0622 50.3717C53.6886 50.7458 53.1816 50.9561 52.6528 50.9561H48.1253V72.8953C48.1253 72.9435 48.1444 72.9895 48.1783 73.0233C48.2121 73.0572 48.2579 73.0763 48.3055 73.0763H78.7361C78.7838 73.0763 78.8297 73.0572 78.8636 73.0233C78.8972 72.9895 78.9164 72.9435 78.9164 72.8953V50.9561H74.3888C73.86 50.9561 73.353 50.7458 72.9791 50.3717C72.6055 49.9975 72.3957 49.49 72.3957 48.9613C72.3957 48.4323 72.6055 47.925 72.9791 47.5509C73.353 47.1768 73.86 46.9665 74.3888 46.9665H78.868C78.6238 41.6129 77.4148 37.1807 75.7665 34.079C74.0647 30.8771 71.9596 29.1979 70.0415 29.1979H42.5063ZM35.2642 29.1979C34.2623 29.1979 33.2091 29.6521 32.1784 30.5594C31.1477 31.4664 30.1584 32.8114 29.2972 34.5453C27.5751 38.0127 26.3893 42.9868 26.3893 48.9613C26.3893 54.9358 27.5751 59.9101 29.2972 63.3772C30.1584 65.1111 31.1477 66.4564 32.1784 67.3634C33.2091 68.2707 34.2623 68.7247 35.2642 68.7247C36.2658 68.7247 37.319 68.2707 38.3497 67.3637C39.3803 66.4567 40.3696 65.1121 41.2309 63.3782C42.953 59.9113 44.1388 54.9372 44.1388 48.9613C44.1388 42.9868 42.953 38.0127 41.2309 34.5453C40.3696 32.8114 39.3803 31.4664 38.3497 30.5594C37.319 29.6521 36.2658 29.1979 35.2642 29.1979ZM35.2642 45.8787C36.0809 45.8787 36.8645 46.2034 37.4422 46.7816C38.0196 47.3597 38.3441 48.1438 38.3441 48.9613C38.3441 49.5709 38.1636 50.1669 37.8253 50.6739C37.4867 51.1809 37.0056 51.5761 36.4429 51.8094C35.8801 52.0429 35.2605 52.1039 34.663 51.9848C34.0655 51.8658 33.5167 51.5722 33.0862 51.1412C32.6554 50.71 32.3621 50.1606 32.2433 49.5626C32.1245 48.9647 32.1854 48.3449 32.4185 47.7818C32.6515 47.2184 33.0462 46.7371 33.5527 46.3983C34.0592 46.0595 34.6548 45.8787 35.2642 45.8787ZM65.6945 46.9665C66.2232 46.9665 66.7302 47.1768 67.1041 47.5509C67.4778 47.925 67.6876 48.4323 67.6876 48.9613C67.6876 49.49 67.4778 49.9975 67.1041 50.3717C66.7302 50.7458 66.2232 50.9561 65.6945 50.9561H61.3474C60.8186 50.9561 60.3114 50.7458 59.9378 50.3717C59.5639 49.9975 59.3538 49.49 59.3538 48.9613C59.3538 48.4323 59.5639 47.925 59.9378 47.5509C60.3114 47.1768 60.8186 46.9665 61.3474 46.9665H65.6945Z" fill="#FE7D37" stroke="#FE7D37" stroke-width="0.726"/>
<path d="M80.5015 95.7861C81.9716 95.7962 83.1553 96.9961 83.1454 98.466C83.1354 99.9361 81.9354 101.12 80.4652 101.11L62.6782 100.989C61.2081 100.979 60.0244 99.7791 60.0344 98.3089C60.0443 96.8388 61.2444 95.6551 62.7145 95.6651L80.5015 95.7861ZM8.94116 92.3211C9.65192 91.0342 11.2713 90.5671 12.5582 91.2776C15.1277 92.6967 21.567 95.4935 26.8465 95.6665C31.4967 95.819 38.2928 95.7454 40.5826 95.6665C42.0518 95.6159 43.2838 96.7659 43.3347 98.2351C43.3852 99.7043 42.2353 100.937 40.7661 100.987C38.3771 101.07 31.46 101.144 26.6722 100.987C20.1424 100.773 12.8197 97.504 9.98455 95.9383C8.69757 95.2275 8.23043 93.6081 8.94116 92.3211ZM102.008 64.7157C103.463 64.5081 104.812 65.5191 105.02 66.9743C105.949 73.4829 106.12 72.6165 106.611 78.7546C106.844 81.6683 106.19 84.7296 105.382 87.251C104.565 89.8007 103.516 92.0261 102.762 93.3513C102.035 94.6291 100.41 95.0756 99.1321 94.3488C97.8541 93.6216 97.4076 91.9964 98.1346 90.7186C98.7118 89.7044 99.6105 87.8158 100.312 85.6264C101.023 83.4087 101.458 81.1056 101.304 79.1793C100.827 73.2176 100.755 74.7708 99.749 67.7274C99.5413 66.272 100.553 64.9238 102.008 64.7157ZM5.33785 55.0204C6.80162 54.8844 8.09879 55.9606 8.23501 57.4242C8.58501 61.1869 8.14385 69.6806 6.71755 75.4878C6.36689 76.9156 4.92505 77.7885 3.49735 77.4381C2.06967 77.0872 1.19653 75.6459 1.54717 74.2181C2.8312 68.9901 3.22902 61.0925 2.93371 57.9177C2.79756 56.4538 3.87402 55.1567 5.33785 55.0204ZM103.39 25.6138C104.856 25.5013 106.136 26.598 106.249 28.0638C106.935 36.9927 106.359 43.6467 105.687 46.239C105.318 47.662 103.865 48.5167 102.442 48.1476C101.019 47.7788 100.164 46.3261 100.534 44.9029C100.991 43.139 101.608 37.1604 100.94 28.4721C100.828 27.0063 101.924 25.7266 103.39 25.6138ZM6.68258 9.91907C7.59443 8.76589 9.26854 8.57007 10.4217 9.48188C11.5749 10.3937 11.7705 12.0679 10.8587 13.2211C10.2498 13.9912 9.28437 15.3569 8.44959 16.8483C7.572 18.416 7.03035 19.7898 6.94253 20.6681C6.59524 24.141 6.95577 28.8748 6.95577 30.8091V35.4071C6.95575 36.8772 5.76385 38.0691 4.29377 38.0691C2.8236 38.0691 1.63177 36.8772 1.63177 35.4071V30.8091C1.63177 29.5974 1.2663 23.9251 1.64501 20.1381C1.84759 18.1125 2.85866 15.9367 3.80408 14.2477C4.79236 12.4821 5.92018 10.8833 6.68258 9.91907ZM65.4651 1.77239C67.8964 1.64877 74.065 1.47552 79.421 1.77309C82.5578 1.94738 86.3473 3.33038 89.5869 4.78981C92.9081 6.28607 96.0028 8.02709 97.8662 9.19167C99.1128 9.97084 99.4917 11.6131 98.7127 12.8597C97.9335 14.1064 96.2913 14.4854 95.0445 13.7062C93.3585 12.6525 90.4758 11.0295 87.4002 9.64399C84.2431 8.22166 81.2161 7.20497 79.1257 7.08881C74.0275 6.8056 68.0639 6.97115 65.7356 7.08954C64.2672 7.16419 63.0165 6.0343 62.942 4.56601C62.8674 3.09782 63.9969 1.84704 65.4651 1.77239ZM34.5898 1.66012C38.3993 1.61521 42.6849 1.68868 45.471 1.77001C46.9405 1.81302 48.097 3.03914 48.0541 4.50858C48.0113 5.9781 46.7851 7.13474 45.3157 7.09189C42.5762 7.0119 38.3674 6.94008 34.6527 6.98388C32.7914 7.00583 31.0883 7.05638 29.7681 7.14578C29.1053 7.19064 28.5763 7.24304 28.1901 7.29938C27.921 7.33865 27.8012 7.36878 27.7813 7.37241C26.475 7.91674 24.9594 7.34177 24.3507 6.0485C23.7247 4.71825 24.2958 3.1324 25.6258 2.50642L25.7393 2.45536C26.3126 2.20958 26.9672 2.09744 27.4215 2.03116C27.9986 1.94699 28.6789 1.88346 29.4083 1.83407C30.8729 1.7349 32.6893 1.68253 34.5898 1.66012Z" fill="#FE7D37"/>
<path d="M176.2 57.74C176.2 61.3667 175.72 64.5667 174.76 67.34C173.8 70.1133 172.413 72.4867 170.6 74.46C168.84 76.38 166.653 77.8467 164.04 78.86C161.48 79.82 158.627 80.3 155.48 80.3C152.493 80.3 149.747 79.82 147.24 78.86C144.733 77.8467 142.547 76.38 140.68 74.46C138.867 72.4867 137.453 70.1133 136.44 67.34C135.427 64.5667 134.92 61.3667 134.92 57.74C134.92 52.94 135.747 48.8867 137.4 45.58C139.053 42.22 141.427 39.6867 144.52 37.98C147.667 36.22 151.373 35.34 155.64 35.34C159.693 35.34 163.24 36.22 166.28 37.98C169.373 39.6867 171.8 42.22 173.56 45.58C175.32 48.8867 176.2 52.94 176.2 57.74ZM145.24 57.74C145.24 60.78 145.587 63.3933 146.28 65.58C147.027 67.7133 148.147 69.34 149.64 70.46C151.187 71.58 153.16 72.14 155.56 72.14C158.013 72.14 159.987 71.58 161.48 70.46C163.027 69.34 164.147 67.7133 164.84 65.58C165.533 63.3933 165.88 60.78 165.88 57.74C165.88 54.6467 165.507 52.06 164.76 49.98C164.067 47.8467 162.947 46.2467 161.4 45.18C159.907 44.06 157.96 43.5 155.56 43.5C151.933 43.5 149.293 44.7267 147.64 47.18C146.04 49.6333 145.24 53.1533 145.24 57.74ZM209.421 35.34C214.487 35.34 218.567 37.2333 221.661 41.02C224.754 44.7533 226.301 50.3267 226.301 57.74C226.301 62.6467 225.581 66.78 224.141 70.14C222.701 73.5 220.701 76.0333 218.141 77.74C215.581 79.4467 212.594 80.3 209.181 80.3C207.101 80.3 205.261 80.0333 203.661 79.5C202.061 78.9133 200.701 78.1933 199.581 77.34C198.461 76.4333 197.501 75.4733 196.701 74.46H196.061C196.274 75.42 196.434 76.5133 196.541 77.74C196.647 78.9133 196.701 80.0333 196.701 81.1V98.7H186.621V36.14H194.781L196.221 41.9H196.701C197.501 40.6733 198.461 39.58 199.581 38.62C200.754 37.6067 202.141 36.8067 203.741 36.22C205.394 35.6333 207.287 35.34 209.421 35.34ZM206.541 43.5C204.194 43.5 202.301 43.98 200.861 44.94C199.421 45.8467 198.381 47.26 197.741 49.18C197.101 51.1 196.754 53.5 196.701 56.38V57.66C196.701 60.7533 196.994 63.3667 197.581 65.5C198.221 67.6333 199.261 69.26 200.701 70.38C202.194 71.5 204.194 72.06 206.701 72.06C208.834 72.06 210.567 71.4733 211.901 70.3C213.287 69.1267 214.301 67.4733 214.941 65.34C215.634 63.1533 215.981 60.5667 215.981 57.58C215.981 53.1 215.207 49.6333 213.661 47.18C212.167 44.7267 209.794 43.5 206.541 43.5ZM254.139 35.34C258.032 35.34 261.365 36.14 264.139 37.74C266.965 39.2867 269.152 41.5267 270.699 44.46C272.245 47.34 273.019 50.86 273.019 55.02V60.14H244.379C244.485 64.0867 245.579 67.1533 247.659 69.34C249.739 71.4733 252.619 72.54 256.299 72.54C259.125 72.54 261.632 72.2733 263.819 71.74C266.059 71.1533 268.352 70.3267 270.699 69.26V77.34C268.565 78.3533 266.352 79.1 264.059 79.58C261.765 80.06 259.019 80.3 255.819 80.3C251.605 80.3 247.845 79.5 244.539 77.9C241.285 76.2467 238.725 73.7667 236.859 70.46C235.045 67.1533 234.139 63.0467 234.139 58.14C234.139 53.18 234.965 49.02 236.619 45.66C238.325 42.2467 240.672 39.6867 243.659 37.98C246.645 36.22 250.139 35.34 254.139 35.34ZM254.139 42.78C251.472 42.78 249.285 43.66 247.579 45.42C245.925 47.1267 244.939 49.6867 244.619 53.1H263.259C263.259 51.0733 262.912 49.2867 262.219 47.74C261.579 46.1933 260.592 44.9933 259.259 44.14C257.925 43.2333 256.219 42.78 254.139 42.78ZM306.383 35.34C311.236 35.34 315.023 36.5933 317.743 39.1C320.516 41.6067 321.903 45.66 321.903 51.26V79.5H311.823V53.26C311.823 50.0067 311.183 47.58 309.903 45.98C308.623 44.3267 306.596 43.5 303.823 43.5C299.77 43.5 296.996 44.78 295.503 47.34C294.01 49.8467 293.263 53.5 293.263 58.3V79.5H283.183V36.14H290.943L292.383 41.82H292.943C293.903 40.3267 295.076 39.1 296.463 38.14C297.85 37.18 299.396 36.4867 301.103 36.06C302.81 35.58 304.57 35.34 306.383 35.34ZM344.591 79.5H334.511V18.7H344.591V79.5ZM367.48 79.5L351 36.14H361.64L370.28 61.18C370.653 62.1933 371 63.3133 371.32 64.54C371.64 65.7133 371.907 66.8867 372.12 68.06C372.387 69.18 372.547 70.1667 372.6 71.02H372.92C373.027 70.1133 373.213 69.1 373.48 67.98C373.747 66.8067 374.04 65.6333 374.36 64.46C374.733 63.2867 375.08 62.1933 375.4 61.18L384.04 36.14H394.68L378.2 79.5H367.48Z" fill="white"/>
</g>
<defs>
<clipPath id="clip0_274_425">
<rect width="474" height="104" fill="white"/>
</clipPath>
</defs>
</svg>
