<svg width="500" height="500" viewBox="0 0 500 500" fill="none" xmlns="http://www.w3.org/2000/svg" style="color: #fe7d37;"><path d="M318.354 141.355C333.64 141.355 346.952 152.55 356.358 170.152C365.791 187.805 371.5 212.223 371.5 239.509V338.41C371.5 342.98 369.686 347.365 366.457 350.597C363.228 353.829 358.849 355.644 354.282 355.645H228.536C223.969 355.644 219.589 353.829 216.36 350.597C213.131 347.365 211.318 342.98 211.318 338.41V311.256C202 327.486 189.221 337.662 174.646 337.662C159.36 337.662 146.048 326.468 136.642 308.865C127.209 291.213 121.5 266.794 121.5 239.509C121.5 212.223 127.209 187.805 136.642 170.152C146.048 152.55 159.36 141.355 174.646 141.355H318.354ZM204.572 157.842C217.61 173.942 226.28 200.459 227.599 231.266H246.5C248.685 231.266 250.78 232.135 252.324 233.681C253.869 235.227 254.736 237.323 254.736 239.509C254.736 241.695 253.869 243.791 252.324 245.337C250.78 246.883 248.685 247.752 246.5 247.752H227.791V338.41C227.791 338.609 227.87 338.799 228.01 338.939C228.15 339.079 228.339 339.158 228.536 339.158H354.282C354.479 339.158 354.669 339.079 354.809 338.939C354.948 338.799 355.027 338.609 355.027 338.41V247.752H336.318C334.133 247.752 332.038 246.883 330.493 245.337C328.949 243.791 328.082 241.694 328.082 239.509C328.082 237.323 328.949 235.227 330.493 233.681C332.038 232.135 334.133 231.266 336.318 231.266H354.827C353.818 209.144 348.822 190.829 342.011 178.012C334.979 164.781 326.28 157.842 318.354 157.842H204.572ZM174.646 157.842C170.506 157.842 166.154 159.719 161.895 163.468C157.636 167.216 153.548 172.774 149.989 179.939C142.873 194.267 137.973 214.821 137.973 239.509C137.973 264.197 142.873 284.752 149.989 299.079C153.548 306.244 157.636 311.803 161.895 315.551C166.154 319.3 170.506 321.176 174.646 321.176C178.785 321.176 183.137 319.3 187.396 315.552C191.655 311.804 195.743 306.248 199.302 299.083C206.418 284.757 211.318 264.203 211.318 239.509C211.318 214.821 206.418 194.267 199.302 179.939C195.743 172.774 191.655 167.216 187.396 163.468C183.137 159.719 178.785 157.842 174.646 157.842ZM174.646 226.771C178.021 226.771 181.259 228.113 183.646 230.502C186.032 232.891 187.373 236.131 187.373 239.509C187.373 242.028 186.627 244.491 185.229 246.586C183.83 248.681 181.842 250.314 179.517 251.278C177.191 252.243 174.631 252.495 172.162 252.003C169.693 251.511 167.425 250.298 165.646 248.517C163.866 246.735 162.654 244.465 162.163 241.994C161.672 239.523 161.924 236.962 162.887 234.635C163.85 232.307 165.481 230.318 167.574 228.918C169.667 227.518 172.128 226.771 174.646 226.771ZM300.391 231.266C302.576 231.266 304.671 232.135 306.216 233.681C307.76 235.227 308.627 237.323 308.627 239.509C308.627 241.694 307.76 243.791 306.216 245.337C304.671 246.883 302.576 247.752 300.391 247.752H282.428C280.243 247.752 278.147 246.883 276.603 245.337C275.058 243.791 274.19 241.694 274.19 239.509C274.19 237.323 275.058 235.227 276.603 233.681C278.147 232.135 280.243 231.266 282.428 231.266H300.391Z" fill="currentColor" stroke="currentColor" stroke-width="3"/><path d="M361.576 433C367.651 433.042 372.542 438 372.501 444.074C372.46 450.149 367.501 455.04 361.426 454.999L287.926 454.499C281.851 454.457 276.96 449.5 277.001 443.425C277.042 437.35 282.001 432.459 288.076 432.5L361.576 433ZM65.8721 418.682C68.8091 413.364 75.5006 411.434 80.8184 414.37C91.4364 420.234 118.045 431.791 139.861 432.506C159.077 433.136 187.16 432.832 196.622 432.506C202.693 432.297 207.784 437.049 207.994 443.12C208.203 449.191 203.451 454.284 197.38 454.493C187.508 454.834 158.925 455.142 139.141 454.493C112.158 453.608 81.8993 440.099 70.1836 433.629C64.8655 430.692 62.9352 424 65.8721 418.682ZM450.445 304.61C456.459 303.752 462.031 307.93 462.891 313.943C466.733 340.838 467.437 337.258 469.466 362.622C470.429 374.662 467.727 387.312 464.389 397.731C461.013 408.267 456.677 417.463 453.562 422.939C450.557 428.219 443.842 430.064 438.562 427.061C433.281 424.056 431.436 417.34 434.44 412.06C436.825 407.869 440.539 400.065 443.438 391.018C446.375 381.854 448.173 372.337 447.536 364.377C445.565 339.742 445.269 346.16 441.111 317.055C440.253 311.041 444.432 305.47 450.445 304.61ZM50.9824 264.547C57.031 263.985 62.3912 268.432 62.9541 274.48C64.4004 290.028 62.5774 325.126 56.6836 349.123C55.2346 355.023 49.2766 358.63 43.377 357.182C37.4775 355.732 33.8695 349.776 35.3184 343.876C40.6243 322.273 42.2682 289.638 41.0479 276.519C40.4853 270.47 44.9335 265.11 50.9824 264.547ZM456.157 143.032C462.214 142.567 467.503 147.099 467.969 153.156C470.807 190.052 468.426 217.548 465.649 228.26C464.125 234.14 458.121 237.672 452.24 236.147C446.36 234.623 442.828 228.62 444.353 222.739C446.242 215.45 448.795 190.745 446.033 154.843C445.568 148.786 450.1 143.498 456.157 143.032ZM56.5391 78.1777C60.3071 73.4125 67.2249 72.6033 71.9902 76.3711C76.7553 80.1391 77.5637 87.057 73.7959 91.8223C71.2797 95.0046 67.2903 100.648 63.8408 106.811C60.2144 113.289 57.9762 118.966 57.6133 122.595C56.1782 136.946 57.668 156.507 57.668 164.5V183.5C57.6679 189.575 52.7427 194.5 46.668 194.5C40.5929 194.5 35.668 189.575 35.668 183.5V164.5C35.668 159.493 34.1578 136.054 35.7227 120.405C36.5598 112.035 40.7378 103.044 44.6445 96.0645C48.7283 88.7689 53.3887 82.162 56.5391 78.1777ZM299.442 44.5137C309.489 44.0029 334.979 43.287 357.111 44.5166C370.073 45.2368 385.732 50.9517 399.119 56.9824C412.843 63.1653 425.631 70.3596 433.331 75.1719C438.482 78.3916 440.048 85.1776 436.829 90.3291C433.609 95.4808 426.823 97.0468 421.671 93.8271C414.704 89.4729 402.792 82.7664 390.083 77.041C377.037 71.1636 364.529 66.9624 355.891 66.4824C334.824 65.3121 310.181 65.9962 300.56 66.4854C294.492 66.7939 289.324 62.1249 289.016 56.0576C288.708 49.9907 293.375 44.8222 299.442 44.5137ZM171.858 44.0498C187.6 43.8642 205.309 44.1678 216.822 44.5039C222.894 44.6816 227.673 49.7482 227.496 55.8203C227.319 61.8927 222.252 66.6722 216.18 66.4951C204.86 66.1646 187.468 65.8678 172.118 66.0488C164.427 66.1395 157.389 66.3484 151.934 66.7178C149.195 66.9032 147.009 67.1197 145.413 67.3525C144.301 67.5148 143.806 67.6393 143.724 67.6543C138.326 69.9036 132.063 67.5277 129.548 62.1836C126.961 56.6867 129.321 50.1336 134.817 47.5469L135.286 47.3359C137.655 46.3203 140.36 45.8569 142.237 45.583C144.622 45.2352 147.433 44.9727 150.447 44.7686C156.499 44.3588 164.005 44.1424 171.858 44.0498Z" fill="currentColor"/></svg>
